<svg width="137" height="136" viewBox="0 0 137 136" fill="none" xmlns="http://www.w3.org/2000/svg">
<g filter="url(#filter0_d_1348_790)">
<rect x="40.5" y="10" width="56" height="56" rx="28" fill="#3D3D3D"/>
<path d="M69.2071 29.2929C68.8166 28.9024 68.1834 28.9024 67.7929 29.2929L61.4289 35.6569C61.0384 36.0474 61.0384 36.6805 61.4289 37.0711C61.8195 37.4616 62.4526 37.4616 62.8431 37.0711L68.5 31.4142L74.1569 37.0711C74.5474 37.4616 75.1805 37.4616 75.5711 37.0711C75.9616 36.6805 75.9616 36.0474 75.5711 35.6569L69.2071 29.2929ZM67.5 30L67.5 46L69.5 46L69.5 30L67.5 30Z" fill="white"/>
</g>
<defs>
<filter id="filter0_d_1348_790" x="0.5" y="0" width="136" height="136" filterUnits="userSpaceOnUse" color-interpolation-filters="sRGB">
<feFlood flood-opacity="0" result="BackgroundImageFix"/>
<feColorMatrix in="SourceAlpha" type="matrix" values="0 0 0 0 0 0 0 0 0 0 0 0 0 0 0 0 0 0 127 0" result="hardAlpha"/>
<feOffset dy="30"/>
<feGaussianBlur stdDeviation="20"/>
<feColorMatrix type="matrix" values="0 0 0 0 0.831373 0 0 0 0 0.85098 0 0 0 0 0.909804 0 0 0 0.2 0"/>
<feBlend mode="normal" in2="BackgroundImageFix" result="effect1_dropShadow_1348_790"/>
<feBlend mode="normal" in="SourceGraphic" in2="effect1_dropShadow_1348_790" result="shape"/>
</filter>
</defs>
</svg>
